<?xml version="1.0" encoding="UTF-8" standalone="no"?>
<!DOCTYPE svg PUBLIC "-//W3C//DTD SVG 1.1//EN"
 "http://www.w3.org/Graphics/SVG/1.1/DTD/svg11.dtd">
<!-- Generated by graphviz version 2.40.1 (20161225.0304)
 -->
<!-- Title: dependencies Pages: 1 -->
<svg width="1017pt" height="349pt"
 viewBox="0.00 0.00 1017.00 349.00" xmlns="http://www.w3.org/2000/svg" xmlns:xlink="http://www.w3.org/1999/xlink">
<g id="graph0" class="graph" transform="scale(1 1) rotate(0) translate(4 345)">
<title>dependencies</title>
<polygon fill="#ffffff" stroke="transparent" points="-4,4 -4,-345 1013,-345 1013,4 -4,4"/>
<text text-anchor="start" x="483.5091" y="-42.4" font-family="sans-serif" font-weight="bold" font-size="14.00" fill="#000000">Legend</text>
<polygon fill="#ffffb3" stroke="transparent" points="270.5,-10 270.5,-30 290.5,-30 290.5,-10 270.5,-10"/>
<text text-anchor="start" x="294.129" y="-15.4" font-family="sans-serif" font-size="14.00" fill="#000000"> &#160;Declarations</text>
<polygon fill="#8dd3c7" stroke="transparent" points="383.5,-10 383.5,-30 403.5,-30 403.5,-10 383.5,-10"/>
<text text-anchor="start" x="407.2251" y="-15.4" font-family="sans-serif" font-size="14.00" fill="#000000"> &#160;Module</text>
<polygon fill="#80b1d3" stroke="transparent" points="469.5,-10 469.5,-30 489.5,-30 489.5,-10 469.5,-10"/>
<text text-anchor="start" x="493.2812" y="-15.4" font-family="sans-serif" font-size="14.00" fill="#000000"> &#160;Bootstrap</text>
<polygon fill="#fdb462" stroke="transparent" points="566.5,-10 566.5,-30 586.5,-30 586.5,-10 566.5,-10"/>
<text text-anchor="start" x="590.1732" y="-15.4" font-family="sans-serif" font-size="14.00" fill="#000000"> &#160;Providers</text>
<polygon fill="#fb8072" stroke="transparent" points="662.5,-10 662.5,-30 682.5,-30 682.5,-10 662.5,-10"/>
<text text-anchor="start" x="686.2258" y="-15.4" font-family="sans-serif" font-size="14.00" fill="#000000"> &#160;Exports</text>
<g id="clust1" class="cluster">
<title>cluster_AppModule</title>
<polygon fill="none" stroke="#000000" stroke-dasharray="1,5" points="8,-70 8,-333 1001,-333 1001,-70 8,-70"/>
</g>
<g id="clust2" class="cluster">
<title>cluster_AppModule_declarations</title>
<polygon fill="none" stroke="#000000" points="168,-143 168,-195 993,-195 993,-143 168,-143"/>
</g>
<g id="clust3" class="cluster">
<title>cluster_AppModule_AppComponent_providers</title>
<polygon fill="none" stroke="#000000" points="861,-78 861,-130 993,-130 993,-78 861,-78"/>
</g>
<g id="clust9" class="cluster">
<title>cluster_AppModule_imports</title>
<polygon fill="none" stroke="#000000" points="16,-143 16,-195 160,-195 160,-143 16,-143"/>
</g>
<g id="clust11" class="cluster">
<title>cluster_AppModule_bootstrap</title>
<polygon fill="none" stroke="#000000" points="442,-273 442,-325 566,-325 566,-273 442,-273"/>
</g>
<!-- AppComponent -->
<g id="node1" class="node">
<title>AppComponent</title>
<polygon fill="#ffffb3" stroke="#000000" points="984.9399,-187 879.0601,-187 879.0601,-151 984.9399,-151 984.9399,-187"/>
<text text-anchor="middle" x="932" y="-164.8" font-family="Times,serif" font-size="14.00" fill="#000000">AppComponent</text>
</g>
<!-- AppModule -->
<g id="node7" class="node">
<title>AppModule</title>
<polygon fill="#8dd3c7" stroke="#000000" points="545.6571,-252 542.6571,-256 521.6571,-256 518.6571,-252 462.3429,-252 462.3429,-216 545.6571,-216 545.6571,-252"/>
<text text-anchor="middle" x="504" y="-229.8" font-family="Times,serif" font-size="14.00" fill="#000000">AppModule</text>
</g>
<!-- AppComponent&#45;&gt;AppModule -->
<g id="edge1" class="edge">
<title>AppComponent&#45;&gt;AppModule</title>
<path fill="none" stroke="#000000" d="M932,-187.2921C932,-209.2057 932,-243 932,-243 932,-243 555.8177,-243 555.8177,-243"/>
<polygon fill="#000000" stroke="#000000" points="555.8178,-239.5001 545.8177,-243 555.8177,-246.5001 555.8178,-239.5001"/>
</g>
<!-- AboutComponent -->
<g id="node2" class="node">
<title>AboutComponent</title>
<polygon fill="#ffffb3" stroke="#000000" points="861.3301,-187 744.6699,-187 744.6699,-151 861.3301,-151 861.3301,-187"/>
<text text-anchor="middle" x="803" y="-164.8" font-family="Times,serif" font-size="14.00" fill="#000000">AboutComponent</text>
</g>
<!-- AboutComponent&#45;&gt;AppModule -->
<g id="edge3" class="edge">
<title>AboutComponent&#45;&gt;AppModule</title>
<path fill="none" stroke="#000000" d="M803,-187.1061C803,-206.3391 803,-234 803,-234 803,-234 555.8895,-234 555.8895,-234"/>
<polygon fill="#000000" stroke="#000000" points="555.8895,-230.5001 545.8895,-234 555.8895,-237.5001 555.8895,-230.5001"/>
</g>
<!-- CollectionComponent -->
<g id="node3" class="node">
<title>CollectionComponent</title>
<polygon fill="#ffffb3" stroke="#000000" points="726.661,-187 587.339,-187 587.339,-151 726.661,-151 726.661,-187"/>
<text text-anchor="middle" x="657" y="-164.8" font-family="Times,serif" font-size="14.00" fill="#000000">CollectionComponent</text>
</g>
<!-- CollectionComponent&#45;&gt;AppModule -->
<g id="edge4" class="edge">
<title>CollectionComponent&#45;&gt;AppModule</title>
<path fill="none" stroke="#000000" d="M657,-187.027C657,-203.3976 657,-225 657,-225 657,-225 555.8079,-225 555.8079,-225"/>
<polygon fill="#000000" stroke="#000000" points="555.808,-221.5001 545.8079,-225 555.8079,-228.5001 555.808,-221.5001"/>
</g>
<!-- RatingCategoryPipe -->
<g id="node4" class="node">
<title>RatingCategoryPipe</title>
<polygon fill="#ffffb3" stroke="#000000" points="568.538,-187 439.462,-187 439.462,-151 568.538,-151 568.538,-187"/>
<text text-anchor="middle" x="504" y="-164.8" font-family="Times,serif" font-size="14.00" fill="#000000">RatingCategoryPipe</text>
</g>
<!-- RatingCategoryPipe&#45;&gt;AppModule -->
<g id="edge5" class="edge">
<title>RatingCategoryPipe&#45;&gt;AppModule</title>
<path fill="none" stroke="#000000" d="M504,-187.1061C504,-187.1061 504,-205.991 504,-205.991"/>
<polygon fill="#000000" stroke="#000000" points="500.5001,-205.9909 504,-215.991 507.5001,-205.991 500.5001,-205.9909"/>
</g>
<!-- RatingComponent -->
<g id="node5" class="node">
<title>RatingComponent</title>
<polygon fill="#ffffb3" stroke="#000000" points="421.1653,-187 302.8347,-187 302.8347,-151 421.1653,-151 421.1653,-187"/>
<text text-anchor="middle" x="362" y="-164.8" font-family="Times,serif" font-size="14.00" fill="#000000">RatingComponent</text>
</g>
<!-- RatingComponent&#45;&gt;AppModule -->
<g id="edge6" class="edge">
<title>RatingComponent&#45;&gt;AppModule</title>
<path fill="none" stroke="#000000" d="M362,-187.027C362,-203.3976 362,-225 362,-225 362,-225 452.1633,-225 452.1633,-225"/>
<polygon fill="#000000" stroke="#000000" points="452.1634,-228.5001 462.1633,-225 452.1633,-221.5001 452.1634,-228.5001"/>
</g>
<!-- TabsComponent -->
<g id="node6" class="node">
<title>TabsComponent</title>
<polygon fill="#ffffb3" stroke="#000000" points="284.0452,-187 175.9548,-187 175.9548,-151 284.0452,-151 284.0452,-187"/>
<text text-anchor="middle" x="230" y="-164.8" font-family="Times,serif" font-size="14.00" fill="#000000">TabsComponent</text>
</g>
<!-- TabsComponent&#45;&gt;AppModule -->
<g id="edge7" class="edge">
<title>TabsComponent&#45;&gt;AppModule</title>
<path fill="none" stroke="#000000" d="M230,-187.1061C230,-206.3391 230,-234 230,-234 230,-234 452.087,-234 452.087,-234"/>
<polygon fill="#000000" stroke="#000000" points="452.0871,-237.5001 462.087,-234 452.087,-230.5001 452.0871,-237.5001"/>
</g>
<!-- AppComponent  -->
<g id="node10" class="node">
<title>AppComponent </title>
<polygon fill="#80b1d3" stroke="#000000" points="558.439,-317 449.561,-317 449.561,-281 558.439,-281 558.439,-317"/>
<text text-anchor="middle" x="504" y="-294.8" font-family="Times,serif" font-size="14.00" fill="#000000">AppComponent </text>
</g>
<!-- AppModule&#45;&gt;AppComponent  -->
<g id="edge9" class="edge">
<title>AppModule&#45;&gt;AppComponent </title>
<path fill="none" stroke="#000000" stroke-dasharray="1,5" d="M504,-252.1061C504,-252.1061 504,-270.991 504,-270.991"/>
<polygon fill="#000000" stroke="#000000" points="500.5001,-270.9909 504,-280.991 507.5001,-270.991 500.5001,-270.9909"/>
</g>
<!-- DataService -->
<g id="node8" class="node">
<title>DataService</title>
<ellipse fill="#fdb462" stroke="#000000" cx="927" cy="-104" rx="58.4415" ry="18"/>
<text text-anchor="middle" x="927" y="-99.8" font-family="Times,serif" font-size="14.00" fill="#000000">DataService</text>
</g>
<!-- DataService&#45;&gt;AppComponent -->
<g id="edge2" class="edge">
<title>DataService&#45;&gt;AppComponent</title>
<path fill="none" stroke="#000000" d="M932,-122.1061C932,-122.1061 932,-140.991 932,-140.991"/>
<polygon fill="#000000" stroke="#000000" points="928.5001,-140.9909 932,-150.991 935.5001,-140.991 928.5001,-140.9909"/>
</g>
<!-- AppRoutingModule -->
<g id="node9" class="node">
<title>AppRoutingModule</title>
<polygon fill="#8dd3c7" stroke="#000000" points="152.2744,-187 149.2744,-191 128.2744,-191 125.2744,-187 23.7256,-187 23.7256,-151 152.2744,-151 152.2744,-187"/>
<text text-anchor="middle" x="88" y="-164.8" font-family="Times,serif" font-size="14.00" fill="#000000">AppRoutingModule</text>
</g>
<!-- AppRoutingModule&#45;&gt;AppModule -->
<g id="edge8" class="edge">
<title>AppRoutingModule&#45;&gt;AppModule</title>
<path fill="none" stroke="#000000" d="M88,-187.2921C88,-209.2057 88,-243 88,-243 88,-243 452.2076,-243 452.2076,-243"/>
<polygon fill="#000000" stroke="#000000" points="452.2077,-246.5001 462.2076,-243 452.2076,-239.5001 452.2077,-246.5001"/>
</g>
</g>
</svg>
